<svg width="116" height="142" viewBox="0 0 116 142" fill="none" xmlns="http://www.w3.org/2000/svg">
<path fill-rule="evenodd" clip-rule="evenodd" d="M57.8229 0C89.8479 0 115.646 26.2427 115.646 58.7125C115.646 75.1697 106.75 92.5166 83.176 116.091L57.8229 141.888L32.025 116.091C8.89583 92.0718 0 74.7249 0 58.7125C0 26.2427 25.7979 0 57.8229 0Z" fill="#29B574"/>
<rect x="26.687" y="38.9191" width="54.4869" height="54.4869" fill="#F8F8F8"/>
<path d="M34.4709 31.1354L26.687 38.9192H81.174L88.9578 31.1354H34.4709Z" fill="white"/>
<path d="M81.1735 38.7941L88.9573 31.1354L88.9573 84.325L81.1735 93.0819L81.1735 38.7941Z" fill="#D2D2D2"/>
<circle cx="55.5991" cy="68.9425" r="6.67187" fill="#A2A2A2"/>
<path d="M51 67.4384L52.7627 64.8466L54.5255 62.2549L59.7091 65.7804L56.1836 70.964L55.3284 69.4347L53.5918 69.2012L53.1773 67.0239L51 67.4384Z" fill="#F4F4F4"/>
<path d="M64.2207 48L54.5255 62.2549L59.709 65.7804L69.4043 51.5255L64.2207 48Z" fill="#E8A16D"/>
<mask id="mask0" mask-type="alpha" maskUnits="userSpaceOnUse" x="51" y="62" width="9" height="9">
<path d="M51 67.4384L52.7627 64.8466L54.5255 62.2549L59.7091 65.7804L56.1836 70.964L55.3284 69.4347L53.5918 69.2012L53.1773 67.0239L51 67.4384Z" fill="#F4F4F4"/>
</mask>
<g mask="url(#mask0)">
<rect x="55.0713" y="62.6818" width="0.691422" height="7.60564" transform="rotate(34.221 55.0713 62.6818)" fill="#F1F1F1"/>
<rect x="56.2147" y="63.4595" width="0.691422" height="7.60564" transform="rotate(34.221 56.2147 63.4595)" fill="#F1F1F1"/>
<rect x="57.3582" y="64.2372" width="0.691422" height="7.60564" transform="rotate(34.221 57.3582 64.2372)" fill="#F1F1F1"/>
<rect x="58.5016" y="65.0149" width="0.691422" height="7.60564" transform="rotate(34.221 58.5016 65.0149)" fill="#F1F1F1"/>
</g>
<rect x="64.7925" y="48.3889" width="0.691422" height="17.2856" transform="rotate(34.221 64.7925 48.3889)" fill="#E29D6B"/>
<rect x="65.9359" y="49.1665" width="0.691422" height="17.2856" transform="rotate(34.221 65.9359 49.1665)" fill="#E29D6B"/>
<rect x="67.0793" y="49.9442" width="0.691422" height="17.2856" transform="rotate(34.221 67.0793 49.9442)" fill="#E29D6B"/>
<rect x="68.2228" y="50.722" width="0.691422" height="17.2856" transform="rotate(34.221 68.2228 50.722)" fill="#E29D6B"/>
</svg>
