<svg width="22" height="22" viewBox="0 0 22 22" fill="none" xmlns="http://www.w3.org/2000/svg">
<path d="M10.583 0C4.748 0 0 4.747 0 10.583C0 16.419 4.748 21.166 10.583 21.166C16.418 21.166 21.166 16.419 21.166 10.583C21.166 4.747 16.418 0 10.583 0ZM10.583 19.99C5.396 19.99 1.176 15.77 1.176 10.583C1.176 5.396 5.396 1.176 10.583 1.176C15.77 1.176 19.99 5.396 19.99 10.583C19.99 15.77 15.77 19.99 10.583 19.99Z" fill="white"/>
<path d="M10.583 0C4.748 0 0 4.747 0 10.583C0 16.419 4.748 21.166 10.583 21.166C16.418 21.166 21.166 16.419 21.166 10.583C21.166 4.747 16.418 0 10.583 0ZM10.583 19.99C5.396 19.99 1.176 15.77 1.176 10.583C1.176 5.396 5.396 1.176 10.583 1.176C15.77 1.176 19.99 5.396 19.99 10.583C19.99 15.77 15.77 19.99 10.583 19.99Z" stroke="white"/>
<path d="M14.95 5.45897L8.29804 7.95397C8.13904 8.01297 8.01404 8.13897 7.95404 8.29797L5.45904 14.95C5.37804 15.166 5.43104 15.409 5.59404 15.572C5.70604 15.684 5.85604 15.744 6.01004 15.744C6.07904 15.744 6.15004 15.732 6.21704 15.707L12.869 13.212C13.027 13.152 13.153 13.027 13.213 12.868L15.708 6.21597C15.789 5.99997 15.736 5.75697 15.573 5.59397C15.41 5.43097 15.166 5.37897 14.95 5.45897ZM12.205 12.205L7.01404 14.151L8.96004 8.95997L14.151 7.01397L12.205 12.205Z" fill="white"/>
<path d="M14.95 5.45897L8.29804 7.95397C8.13904 8.01297 8.01404 8.13897 7.95404 8.29797L5.45904 14.95C5.37804 15.166 5.43104 15.409 5.59404 15.572C5.70604 15.684 5.85604 15.744 6.01004 15.744C6.07904 15.744 6.15004 15.732 6.21704 15.707L12.869 13.212C13.027 13.152 13.153 13.027 13.213 12.868L15.708 6.21597C15.789 5.99997 15.736 5.75697 15.573 5.59397C15.41 5.43097 15.166 5.37897 14.95 5.45897ZM12.205 12.205L7.01404 14.151L8.96004 8.95997L14.151 7.01397L12.205 12.205Z" stroke="white"/>
</svg>
